<svg id="Component_4_1" data-name="Component 4 – 1" xmlns="http://www.w3.org/2000/svg" width="537.619" height="283.667" viewBox="0 0 537.619 283.667">
  <path id="Path_28" data-name="Path 28" d="M-25-879.77s5-26.289,63.667-16.113,116,22.9,144,5.936,36-16.961,90.667,0S332-861.113,356-879.77s38.667,108.548,37.333,113.636S364-630.448,364-630.448s-30.667,20.353-117.333,6.784-72-15.265-116-6.784S44-620.272,0-630.448s-118.667-28.833-118.667-28.833L-72-748.325l9.333-39.858Z" transform="translate(118.667 902.667)" fill="#28df99"/>
  <path id="Path_31" data-name="Path 31" d="M384.848,493.939s-115.152-100-163.636-60.606-115.152,9.091-148.485,60.606S-24.242,633.333,39.394,600s96.97-75.758,139.394-27.273S257.576,696.97,269.7,612.121s-9.091-127.273,27.273-100-6.061,54.545,57.576,48.485,66.667,18.182,63.636-66.667S384.848,493.939,384.848,493.939Z" transform="translate(118.667 -390.333)" fill="#22c98a"/>
</svg>
