<svg xmlns="http://www.w3.org/2000/svg" width="254" height="254" viewBox="0 0 254 254">
  <path id="app-store-brands" d="M134.949,65.816l4.66-8.04a10.461,10.461,0,0,1,18.128,10.447l-44.808,77.583h32.416c10.5,0,16.387,12.342,11.829,20.894H62.18a10.447,10.447,0,1,1,0-20.894H88.809l34.106-59.1L112.263,68.223a10.461,10.461,0,1,1,18.128-10.447Zm-40.3,111.637L84.61,194.864a10.461,10.461,0,0,1-18.128-10.447l7.477-12.9C82.356,168.9,89.219,170.9,94.647,177.453Zm86.493-31.6h27.192a10.447,10.447,0,0,1,0,20.894H193.225l10.191,17.667a10.461,10.461,0,0,1-18.128,10.447q-25.733-44.629-38.612-66.88c-8.757-15.107-2.509-30.265,3.687-35.386q10.293,17.667,30.777,53.258ZM135,8A127,127,0,1,0,262,135,126.978,126.978,0,0,0,135,8ZM245.613,135A110.613,110.613,0,1,1,135,24.387,110.608,110.608,0,0,1,245.613,135Z" transform="translate(-8 -8)" fill="#1f2123"/>
</svg>
