<svg xmlns="http://www.w3.org/2000/svg" width="470.249" height="675.22" viewBox="0 0 470.249 675.22">
  <path id="Path_36" data-name="Path 36" d="M3836-902c-74,18-82,24-138,0s-126-32-136,0-44,74,0,96,80,0,168,0,114,54,118,84,28,84,38,100-4,88-28,90-36.536,25.208-86.536-8.792S3744-499.673,3698-471.673,3580-562,3562-532s-56,12-56,40,40,66,56,74,96-26,72,24-60,50-72,72-60,40,0,40,148-24,168-30,76,22,80,30,8,66,76,10,106-44,84-146-36-118-38-182-4-138,0-174,20-110,0-118-84-10-84-10Z" transform="translate(-3506 923.106)" fill="#131416"/>
</svg>
