<svg xmlns="http://www.w3.org/2000/svg" width="426.958" height="720.009" viewBox="0 0 426.958 720.009">
  <path id="Path_34" data-name="Path 34" d="M1741.854-889.058s22.831,6.715,65.806-8.058,30.889-33.575,83.265-10.744,85.951,18.8,85.951,91.323-44.318,108.782,14.773,116.84,75.208-6.715,89.98,44.319-9.4,95.352,0,150.415,41.633,42.976,9.4,73.864-81.922,12.087-65.807,80.579,51.034,63.12,20.145,95.352-44.319,67.149-76.55,53.719-98.038-124.9-92.666-149.072,41.633-49.691,52.376-91.323,36.261-65.806-18.8-92.666-72.521-64.463-45.662-87.294,80.579-8.058,64.463-59.091,75.207-142.357-37.6-72.521-106.1,141.014-95.352,201.448,18.8,83.265-14.773,99.381-76.55,45.662-98.038,21.488,37.6-279.341,41.633-268.6,17.459-197.419,17.459-197.419Z" transform="translate(-1678.073 918.504)" fill="#131416"/>
</svg>
